<?xml version="1.0" encoding="utf-8"?>
<!-- Generator: Adobe Illustrator 21.1.0, SVG Export Plug-In . SVG Version: 6.00 Build 0)  -->
<svg version="1.1" id="Layer_1" xmlns="http://www.w3.org/2000/svg" xmlns:xlink="http://www.w3.org/1999/xlink" x="0px" y="0px" viewBox="0 0 49.5 52.5" style="enable-background: new 0 0 49.5 52.5;" xml:space="preserve">
    <style type="text/css">
        .st0 {
            fill: #bba454;
        }
        .st1 {
            fill: #383838;
        }
    </style>
    <g>
        <polygon class="st0" points="1.4,38.9 1.5,13.6 24.8,1 48,13.7 48,39.1 24.6,51.7 	" />
        <g>
            <g>
                <path
                    class="st1"
                    d="M25.8,37c-0.2-0.6-0.3-0.9-0.3-2.8v-3.6c0-2.1-0.7-2.9-2.4-2.9h-1.3V37H18V14.3h5.6c3.9,0,5.5,1.7,5.5,5.2
				v1.8c0,2.3-0.8,3.9-2.4,4.6c1.9,0.7,2.5,2.5,2.5,4.8v3.5c0,1.1,0,1.9,0.4,2.8H25.8z M21.8,17.5v7h1.5c1.4,0,2.2-0.6,2.2-2.4v-2.2
				c0-1.6-0.6-2.3-1.9-2.3H21.8z"
                />
            </g>
            <g>
                <path class="st1" d="M31.5,15.4H33v1h-1.5v2.9h-1.2v-7.1h3.1v1h-1.9V15.4z" />
            </g>
        </g>
    </g>
</svg>
